 http://kastatic.com/i2/u/1813980/0aq32UMZvX.gif

Cover 
http://www.shotpix.com/images/78808587535944311363.jpg

General
Complete name                            : Rick Ross ft. Wale, Drake - Diced Pineapples (Explicit) 720p [Sbyky].mp4
Format                                   : MPEG-4
Format profile                           : Base Media / Version 2
Codec ID                                 : mp42
File size                                : 77.3 MiB
Duration                                 : 4mn 42s
Overall bit rate mode                    : Variable
Overall bit rate                         : 2 296 Kbps
Encoded date                             : UTC 2012-10-10 03:32:35
Tagged date                              : UTC 2012-10-10 03:32:35
gsst                                     : 0
gstd                                     : 282446
gssd                                     : BADC23D05HH1357375654746366
gshh                                     :

Video
ID                                       : 1
Format                                   : AVC
Format/Info                              : Advanced Video Codec
Format profile                           : High@L3.1
Format settings, CABAC                   : Yes
Format settings, ReFrames                : 1 frame
Codec ID                                 : avc1
Codec ID/Info                            : Advanced Video Coding
Duration                                 : 4mn 42s
Bit rate                                 : 2 101 Kbps
Maximum bit rate                         : 7 552 Kbps
Width                                    : 1 280 pixels
Height                                   : 720 pixels
Display aspect ratio                     : 16:9
Frame rate mode                          : Constant
Frame rate                               : 23.976 fps
Color space                              : YUV
Chroma subsampling                       : 4:2:0
Bit depth                                : 8 bits
Scan type                                : Progressive
Bits/(Pixel*Frame)                       : 0.095
Stream size                              : 70.7 MiB (92%)
Tagged date                              : UTC 2012-10-10 03:32:36

Audio
ID                                       : 2
Format                                   : AAC
Format/Info                              : Advanced Audio Codec
Format profile                           : LC
Codec ID                                 : 40
Duration                                 : 4mn 42s
Bit rate mode                            : Variable
Bit rate                                 : 192 Kbps
Maximum bit rate                         : 204 Kbps
Channel(s)                               : 2 channels
Channel positions                        : Front: L R
Sampling rate                            : 44.1 KHz
Compression mode                         : Lossy
Stream size                              : 6.46 MiB (8%)
Title                                    : IsoMedia File Produced by Google, 5-11-2011
Encoded date                             : UTC 2012-10-10 03:32:36
Tagged date                              : UTC 2012-10-10 03:32:36

Shared By Sbyky 
http://kastatic.com/i2/u/1813980/bQg62viaEG.gif